<svg width="500" height="500" viewBox="0 0 500 500" fill="none" xmlns="http://www.w3.org/2000/svg">
<path d="M250 477.93C380.113 477.93 485.59 417.031 485.59 341.91C485.59 266.788 380.113 205.89 250 205.89C119.887 205.89 14.4099 266.788 14.4099 341.91C14.4099 417.031 119.887 477.93 250 477.93Z" fill="#F0F0F0"/>
<path d="M201.25 444.98C246.118 444.98 282.49 423.982 282.49 398.08C282.49 372.178 246.118 351.18 201.25 351.18C156.382 351.18 120.01 372.178 120.01 398.08C120.01 423.982 156.382 444.98 201.25 444.98Z" fill="#E0E0E0"/>
<path d="M432.28 339.4L422.75 333.9C422.75 333.9 420.42 313.5 421.97 297.7C424.15 275.5 438.49 248.78 455.59 255.06C472.69 261.34 447.75 283.94 442.2 302.77C436.65 321.6 432.28 339.4 432.28 339.4Z" fill="#ABBEC7"/>
<path opacity="0.15" d="M432.28 339.4L422.75 333.9C422.75 333.9 420.42 313.5 421.97 297.7C424.15 275.5 438.49 248.78 455.59 255.06C472.69 261.34 447.75 283.94 442.2 302.77C436.65 321.6 432.28 339.4 432.28 339.4Z" fill="black"/>
<path d="M427.27 337.089C427.422 337.081 427.565 337.014 427.668 336.902C427.771 336.79 427.825 336.641 427.82 336.489C426.15 287.159 450.71 262.339 450.95 262.099C451.059 261.991 451.12 261.843 451.12 261.689C451.12 261.536 451.059 261.388 450.95 261.279C450.897 261.226 450.834 261.183 450.764 261.154C450.695 261.125 450.62 261.11 450.545 261.11C450.47 261.11 450.395 261.125 450.326 261.154C450.256 261.183 450.193 261.226 450.14 261.279C449.88 261.519 424.97 286.699 426.66 336.529C426.663 336.606 426.68 336.682 426.713 336.752C426.745 336.822 426.791 336.885 426.847 336.937C426.904 336.989 426.971 337.03 427.043 337.056C427.116 337.082 427.193 337.093 427.27 337.089Z" fill="white"/>
<path d="M438.27 342.83L431.49 338.92C431.49 338.92 430.33 324.92 437.2 307.92C443.2 293.12 458 280.83 465.46 283.41C472.92 285.99 472.73 291.28 469.09 296.83C465.45 302.38 443.34 315.59 438.27 342.83Z" fill="#ABBEC7"/>
<path d="M434.69 341.349C434.843 341.347 434.989 341.285 435.097 341.177C435.206 341.068 435.267 340.922 435.27 340.769C435.13 309.569 464.42 288.489 464.72 288.279C464.783 288.237 464.836 288.181 464.876 288.118C464.917 288.054 464.944 287.982 464.956 287.907C464.968 287.832 464.965 287.756 464.947 287.682C464.929 287.609 464.896 287.54 464.85 287.479C464.762 287.356 464.628 287.272 464.479 287.246C464.329 287.22 464.175 287.253 464.05 287.339C463.75 287.549 433.98 308.989 434.11 340.769C434.11 340.923 434.171 341.071 434.28 341.179C434.389 341.288 434.536 341.349 434.69 341.349Z" fill="white"/>
<path d="M79.6602 327.15L88.4602 321.21C88.4602 321.21 92.3302 298.21 88.7302 277.92C83.6702 249.46 64.0002 240 57.0002 243C50.0002 246 48.5002 254.47 61.5702 270.71C69.3202 280.26 79.3902 300.65 79.6602 327.15Z" fill="#ABBEC7"/>
<g opacity="0.15">
<path d="M79.6602 327.15L88.4602 321.21C88.4602 321.21 92.3302 298.21 88.7302 277.92C83.6702 249.46 64.0002 240 57.0002 243C50.0002 246 48.5002 254.47 61.5702 270.71C69.3202 280.26 79.3902 300.65 79.6602 327.15Z" fill="black"/>
</g>
<path d="M82.6802 315.75H82.5902C82.5003 315.744 82.4126 315.72 82.3328 315.678C82.2531 315.636 82.1831 315.578 82.1274 315.507C82.0717 315.436 82.0316 315.354 82.0097 315.267C81.9877 315.179 81.9845 315.089 82.0002 315C85.1802 288.21 73.8702 259.13 61.5602 247.56C61.4417 247.44 61.3752 247.278 61.3752 247.11C61.3752 246.941 61.4417 246.78 61.5602 246.66C61.6188 246.6 61.6888 246.552 61.7661 246.52C61.8434 246.487 61.9263 246.471 62.0102 246.471C62.094 246.471 62.1769 246.487 62.2542 246.52C62.3315 246.552 62.4015 246.6 62.4602 246.66C75.0002 258.44 86.5202 288 83.3002 315.18C83.2813 315.333 83.2086 315.474 83.095 315.579C82.9814 315.683 82.8343 315.744 82.6802 315.75Z" fill="white"/>
<path d="M56.62 342.69C55.22 343.53 51.14 340.5 50.01 339.77C48.0734 338.505 46.4959 336.763 45.43 334.71C44.2343 332.382 43.7906 329.741 44.16 327.15C44.3649 325.798 44.6622 324.461 45.05 323.15C45.4 321.84 45.75 320.53 46.05 319.21C46.4935 317.926 46.6638 316.564 46.55 315.21C46.16 312.54 43.75 310.71 41.55 309.14C39.13 307.39 36.55 305.08 36.55 301.86C36.6734 299.33 37.6417 296.915 39.3 295C40.8 293 42.6001 291.26 43.9501 289.17C45.0057 287.722 45.5445 285.961 45.48 284.17C45.3062 283.066 44.9117 282.008 44.32 281.06C43.14 278.98 41.61 277.06 40.78 274.85C39.95 272.64 40.01 269.8 41.78 268.15C43.19 266.8 45.3401 266.58 47.2901 266.67C49.1275 266.853 50.9026 267.437 52.4901 268.38C57.6601 271.13 60.7 277.13 66.17 279.22C68.28 280.02 70.58 280.16 72.77 280.7C74.96 281.24 77.22 282.31 78.27 284.3C80.34 288.25 76.73 293.23 78.21 297.42C79.53 301.14 83.2101 302.5 85.2901 305.83C86.1342 307.309 86.4846 309.018 86.2901 310.71C86.1727 313.566 85.5321 316.376 84.4001 319C83.098 321.722 81.6286 324.36 80 326.9C80 326.9 56.83 342.56 56.62 342.69Z" fill="#ABBEC7"/>
<path d="M70.1402 334.399C70.0561 334.398 69.9731 334.38 69.896 334.347C69.8188 334.313 69.749 334.265 69.6905 334.205C69.632 334.144 69.586 334.073 69.555 333.995C69.5241 333.917 69.5088 333.833 69.5102 333.749C70.0702 308.429 57.6102 280.749 48.7902 272.749C48.6648 272.636 48.5892 272.478 48.5798 272.31C48.5705 272.141 48.6281 271.976 48.7402 271.849C48.7988 271.789 48.8688 271.742 48.9461 271.709C49.0234 271.677 49.1063 271.66 49.1902 271.66C49.274 271.66 49.3569 271.677 49.4342 271.709C49.5115 271.742 49.5815 271.789 49.6402 271.849C58.6402 279.949 71.3502 308.109 70.7802 333.779C70.7789 333.862 70.7613 333.944 70.7284 334.02C70.6955 334.096 70.648 334.164 70.5886 334.222C70.5292 334.279 70.459 334.325 70.382 334.355C70.3051 334.386 70.2229 334.401 70.1402 334.399Z" fill="white"/>
<path d="M65.4701 303.549C65.411 303.564 65.3492 303.564 65.2901 303.549C57.1101 301.189 46.9701 300.949 46.8701 300.939C46.7865 300.938 46.704 300.92 46.6274 300.887C46.5508 300.853 46.4816 300.805 46.4239 300.744C46.3662 300.684 46.3211 300.612 46.2912 300.534C46.2614 300.456 46.2474 300.373 46.2501 300.289C46.2485 300.205 46.2645 300.121 46.297 300.043C46.3295 299.965 46.3778 299.895 46.4389 299.837C46.5 299.778 46.5726 299.733 46.652 299.705C46.7313 299.676 46.8158 299.664 46.9001 299.669C47.0001 299.669 57.3001 299.919 65.6401 302.319C65.8013 302.368 65.9368 302.478 66.0173 302.626C66.0977 302.774 66.1167 302.947 66.0701 303.109C66.0311 303.238 65.9516 303.35 65.8434 303.429C65.7352 303.509 65.6042 303.551 65.4701 303.549Z" fill="white"/>
<path d="M301.16 309.74L297.37 307.55C296.738 307.14 296.213 306.586 295.836 305.935C295.459 305.283 295.241 304.551 295.2 303.8V146.28C295.241 145.529 295.458 144.799 295.833 144.147C296.209 143.496 296.731 142.942 297.36 142.53L402.71 81.7096C403.381 81.3696 404.123 81.1924 404.875 81.1924C405.627 81.1924 406.369 81.3696 407.04 81.7096L410.83 83.8996C411.461 84.3096 411.987 84.8629 412.364 85.5146C412.741 86.1663 412.959 86.8978 413 87.6496V245.17C412.959 245.92 412.742 246.65 412.367 247.302C411.991 247.953 411.468 248.507 410.84 248.92L305.49 309.75C304.819 310.09 304.076 310.267 303.324 310.265C302.571 310.264 301.829 310.083 301.16 309.74Z" fill="#455A64"/>
<path d="M413 87.2996C412.85 86.1796 411.94 85.7696 410.85 86.3996L305.49 147.23C304.853 147.629 304.327 148.183 303.96 148.84L295.83 144.15C296.194 143.488 296.72 142.93 297.36 142.53L402.71 81.7096C403.381 81.3696 404.123 81.1924 404.875 81.1924C405.627 81.1924 406.369 81.3696 407.04 81.7096L410.83 83.8996C411.415 84.2764 411.912 84.7754 412.287 85.3622C412.661 85.9491 412.905 86.6099 413 87.2996Z" fill="#455A64"/>
<path d="M305.12 309.919C304.48 310.179 303.792 310.298 303.102 310.268C302.412 310.239 301.736 310.062 301.12 309.749L297.32 307.549C296.692 307.137 296.169 306.583 295.793 305.932C295.418 305.28 295.201 304.55 295.16 303.799V146.279C295.186 145.527 295.403 144.794 295.79 144.149L303.92 148.839C303.525 149.485 303.304 150.223 303.28 150.979V308.499C303.32 309.739 304.1 310.309 305.12 309.919Z" fill="#263238"/>
<path d="M303.32 151V308.5C303.32 309.88 304.32 310.44 305.49 309.75L410.84 248.92C411.469 248.508 411.991 247.953 412.367 247.302C412.742 246.651 412.959 245.92 413 245.17V87.6499C413 86.2699 412 85.7099 410.84 86.3999L305.49 147.23C304.856 147.642 304.329 148.198 303.951 148.854C303.574 149.509 303.358 150.245 303.32 151Z" fill="#37474F"/>
<path d="M278.72 211C277.36 210.19 271.05 206.6 270.72 206.41C270.463 206.256 270.243 206.047 270.078 205.797C269.912 205.548 269.805 205.264 269.764 204.968C269.723 204.671 269.748 204.369 269.839 204.084C269.931 203.799 270.085 203.537 270.29 203.32L295.2 176.6L303.32 181.26L278.42 208C278.224 208.208 278.076 208.456 277.984 208.726C277.892 208.997 277.859 209.284 277.888 209.568C277.916 209.852 278.005 210.127 278.149 210.374C278.292 210.621 278.487 210.834 278.72 211Z" fill="#455A64"/>
<path d="M303.32 181.29L278.42 208C278.143 208.295 277.963 208.667 277.902 209.067C277.842 209.467 277.904 209.876 278.08 210.24C278.257 210.604 278.54 210.906 278.891 211.106C279.243 211.306 279.647 211.395 280.05 211.36L303.32 209.44V181.29Z" fill="#37474F"/>
<path d="M358.16 133.199C370.44 126.109 380.39 131.859 380.39 146.039C380.39 160.219 370.44 177.449 358.16 184.539C345.88 191.629 335.93 185.879 335.93 171.709C335.93 157.539 345.88 140.289 358.16 133.199Z" fill="#808080"/>
<path d="M358 144.359C362 142.059 365.21 143.919 365.21 148.519C365.074 151.02 364.35 153.453 363.097 155.621C361.844 157.79 360.098 159.632 358 160.999C354 163.299 350.78 161.439 350.78 156.839C350.917 154.338 351.643 151.904 352.897 149.736C354.152 147.567 355.9 145.725 358 144.359Z" fill="#CDCDCD"/>
<path d="M372.22 168.88C372.22 161.33 366.91 158.26 360.37 162.04L356.28 164.4C349.74 168.18 344.43 177.4 344.43 184.93V187C345.665 187.395 346.954 187.594 348.25 187.59C351.758 187.471 355.175 186.437 358.16 184.59C363.845 181.089 368.654 176.334 372.22 170.69V168.88Z" fill="#CDCDCD"/>
<path d="M344.08 254.729L372.24 238.469C373.44 237.779 374.41 238.339 374.41 239.719V248.789C374.369 249.541 374.151 250.273 373.774 250.924C373.397 251.576 372.871 252.129 372.24 252.539L344.08 268.799C342.88 269.489 341.91 268.929 341.91 267.549V258.479C341.951 257.727 342.169 256.996 342.546 256.344C342.923 255.693 343.449 255.139 344.08 254.729Z" fill="#888888"/>
<path d="M330.29 234.47L386 202.29C387.43 201.46 388.6 202.13 388.6 203.79V207.16C388.551 208.061 388.29 208.939 387.839 209.721C387.387 210.503 386.757 211.167 386 211.66L330.26 243.84C328.83 244.67 327.67 244 327.67 242.34V239C327.716 238.091 327.977 237.206 328.433 236.418C328.888 235.63 329.525 234.962 330.29 234.47Z" fill="#FAFAFA"/>
<path d="M336.81 211.179C337.57 210.739 338.16 210.669 338.58 210.979C339 211.289 339.21 211.979 339.21 213.039C339.231 214.007 339.015 214.965 338.58 215.829C338.187 216.611 337.571 217.258 336.81 217.689L335.31 218.559V221.789C335.307 221.901 335.28 222.01 335.23 222.109C335.195 222.2 335.132 222.277 335.05 222.329L334.29 222.769C334.264 222.789 334.232 222.799 334.2 222.799C334.168 222.799 334.136 222.789 334.11 222.769C334.056 222.702 334.031 222.616 334.04 222.529V213.179C334.039 213.069 334.063 212.96 334.11 212.859C334.148 212.771 334.21 212.694 334.29 212.639L336.81 211.179ZM335.31 216.749L336.76 215.909C337.11 215.712 337.406 215.43 337.62 215.089C337.847 214.688 337.958 214.231 337.94 213.769C337.94 213.229 337.83 212.919 337.62 212.829C337.472 212.793 337.317 212.792 337.168 212.825C337.019 212.858 336.879 212.924 336.76 213.019L335.31 213.859V216.749Z" fill="#FAFAFA"/>
<path d="M343.4 207.369C343.5 207.309 343.58 207.309 343.63 207.369C343.694 207.459 343.738 207.561 343.76 207.669L346.07 215.489C346.07 215.489 346.07 215.549 346.07 215.579C346.068 215.691 346.041 215.8 345.99 215.899C345.955 215.99 345.892 216.067 345.81 216.119L345.13 216.509C345.01 216.579 344.92 216.589 344.87 216.509C344.822 216.459 344.787 216.397 344.77 216.329L344.36 214.959L341.36 216.679L340.96 218.519C340.932 218.619 340.895 218.716 340.85 218.809C340.8 218.931 340.708 219.031 340.59 219.089L339.91 219.479C339.885 219.5 339.853 219.512 339.82 219.512C339.787 219.512 339.755 219.5 339.73 219.479C339.678 219.415 339.653 219.332 339.66 219.249C339.655 219.213 339.655 219.176 339.66 219.139L341.96 208.659C341.988 208.505 342.031 208.354 342.09 208.209C342.139 208.104 342.219 208.017 342.32 207.959L343.4 207.369ZM343.92 213.429L342.92 209.899L341.92 214.619L343.92 213.429Z" fill="#FAFAFA"/>
<path d="M349.57 203.66C349.905 203.448 350.286 203.321 350.68 203.29C350.959 203.264 351.239 203.327 351.48 203.47C351.699 203.612 351.87 203.818 351.97 204.06C352.079 204.306 352.14 204.57 352.15 204.84C352.157 204.951 352.133 205.061 352.08 205.16C352.045 205.25 351.982 205.327 351.9 205.38L351.24 205.76C351.13 205.82 351.05 205.83 351 205.76C350.938 205.719 350.887 205.664 350.85 205.6C350.81 205.51 350.752 205.429 350.68 205.362C350.608 205.295 350.523 205.243 350.43 205.21C350.125 205.166 349.816 205.245 349.57 205.43C349.408 205.534 349.254 205.651 349.11 205.78C348.961 205.916 348.83 206.071 348.72 206.24C348.614 206.402 348.526 206.577 348.46 206.76C348.401 206.934 348.371 207.116 348.37 207.3C348.358 207.468 348.389 207.636 348.46 207.79C348.491 207.843 348.534 207.889 348.586 207.922C348.639 207.955 348.698 207.975 348.76 207.98C348.945 208.012 349.135 208.012 349.32 207.98L350.19 207.79C350.514 207.693 350.852 207.653 351.19 207.67C351.431 207.669 351.666 207.746 351.86 207.89C352.043 208.044 352.175 208.249 352.24 208.48C352.338 208.803 352.382 209.141 352.37 209.48C352.369 209.926 352.305 210.371 352.18 210.8C352.058 211.241 351.88 211.664 351.65 212.06C351.408 212.465 351.119 212.841 350.79 213.18C350.454 213.528 350.07 213.828 349.65 214.07C349.342 214.257 349.004 214.389 348.65 214.46C348.362 214.515 348.065 214.491 347.79 214.39C347.54 214.273 347.333 214.081 347.2 213.84C347.037 213.531 346.948 213.189 346.94 212.84C346.939 212.726 346.963 212.613 347.01 212.51C347.054 212.424 347.12 212.352 347.2 212.3L347.86 211.92C347.96 211.86 348.04 211.84 348.1 211.87C348.16 211.9 348.2 211.95 348.24 212.04C348.281 212.142 348.335 212.24 348.4 212.33C348.462 212.417 348.549 212.483 348.65 212.52C348.782 212.55 348.918 212.55 349.05 212.52C349.262 212.47 349.465 212.385 349.65 212.27C349.844 212.159 350.028 212.032 350.2 211.89C350.536 211.623 350.804 211.281 350.98 210.89C351.06 210.689 351.101 210.475 351.1 210.26C351.109 210.181 351.103 210.102 351.08 210.026C351.058 209.951 351.02 209.88 350.97 209.82C350.916 209.772 350.852 209.737 350.783 209.716C350.714 209.695 350.641 209.69 350.57 209.7C350.343 209.709 350.118 209.746 349.9 209.81C349.64 209.87 349.34 209.94 348.99 210C348.722 210.067 348.445 210.087 348.17 210.06C347.954 210.046 347.749 209.957 347.59 209.81C347.417 209.64 347.296 209.425 347.24 209.19C347.159 208.842 347.123 208.486 347.13 208.13C347.129 207.689 347.193 207.251 347.32 206.83C347.439 206.396 347.614 205.979 347.84 205.59C348.056 205.203 348.318 204.844 348.62 204.52C348.894 204.189 349.214 203.9 349.57 203.66Z" fill="#FAFAFA"/>
<path d="M356.14 199.88C356.472 199.662 356.854 199.532 357.25 199.5C357.529 199.476 357.808 199.539 358.05 199.68C358.264 199.826 358.43 200.031 358.53 200.27C358.639 200.516 358.7 200.781 358.71 201.05C358.722 201.161 358.697 201.274 358.64 201.37C358.605 201.461 358.542 201.538 358.46 201.59L357.8 201.97C357.7 202.03 357.62 202.05 357.56 201.97C357.496 201.93 357.447 201.87 357.42 201.8C357.329 201.625 357.175 201.489 356.99 201.42C356.841 201.398 356.689 201.406 356.543 201.444C356.397 201.482 356.26 201.548 356.14 201.64C355.973 201.742 355.816 201.859 355.67 201.99C355.525 202.127 355.397 202.281 355.29 202.45C355.18 202.611 355.092 202.786 355.03 202.97C354.968 203.143 354.934 203.326 354.93 203.51C354.918 203.678 354.949 203.847 355.02 204C355.051 204.054 355.094 204.099 355.146 204.132C355.199 204.165 355.258 204.185 355.32 204.19C355.505 204.222 355.695 204.222 355.88 204.19L356.75 204C357.075 203.909 357.412 203.869 357.75 203.88C357.991 203.878 358.227 203.955 358.42 204.1C358.603 204.256 358.738 204.461 358.81 204.69C358.898 205.016 358.939 205.353 358.93 205.69C358.929 206.137 358.865 206.581 358.74 207.01C358.618 207.451 358.44 207.874 358.21 208.27C357.969 208.679 357.68 209.059 357.35 209.4C357.012 209.74 356.633 210.036 356.22 210.28C355.912 210.467 355.573 210.599 355.22 210.67C354.936 210.725 354.642 210.7 354.37 210.6C354.115 210.487 353.904 210.294 353.77 210.05C353.606 209.742 353.52 209.399 353.52 209.05C353.508 208.939 353.533 208.826 353.59 208.73C353.625 208.64 353.688 208.563 353.77 208.51L354.43 208.13C354.53 208.07 354.62 208.05 354.67 208.08C354.705 208.096 354.735 208.119 354.76 208.149C354.784 208.178 354.801 208.213 354.81 208.25C354.855 208.351 354.909 208.448 354.97 208.54C355.036 208.628 355.126 208.694 355.23 208.73C355.362 208.76 355.498 208.76 355.63 208.73C355.842 208.68 356.045 208.596 356.23 208.48C356.419 208.367 356.6 208.24 356.77 208.1C356.946 207.963 357.1 207.801 357.23 207.62C357.359 207.447 357.467 207.259 357.55 207.06C357.63 206.86 357.671 206.646 357.67 206.43C357.679 206.352 357.673 206.272 357.65 206.197C357.628 206.121 357.59 206.051 357.54 205.99C357.486 205.942 357.422 205.907 357.353 205.886C357.284 205.866 357.211 205.86 357.14 205.87C356.917 205.884 356.696 205.921 356.48 205.98C356.22 206.04 355.91 206.11 355.57 206.17C355.299 206.237 355.018 206.257 354.74 206.23C354.523 206.219 354.317 206.13 354.16 205.98C353.99 205.81 353.872 205.595 353.82 205.36C353.731 205.017 353.691 204.664 353.7 204.31C353.704 203.867 353.767 203.426 353.89 203C354.014 202.568 354.188 202.151 354.41 201.76C354.626 201.371 354.892 201.011 355.2 200.69C355.469 200.373 355.786 200.099 356.14 199.88Z" fill="#FAFAFA"/>
<path d="M363.43 201.129L362.62 205.919C362.596 206.064 362.556 206.204 362.5 206.339C362.461 206.447 362.387 206.539 362.29 206.599L361.53 207.039C361.43 207.099 361.36 207.099 361.31 207.039C361.243 206.957 361.204 206.855 361.2 206.749L360 198.299C360 198.299 360 198.219 360 198.189C360.003 198.078 360.03 197.969 360.08 197.869C360.118 197.781 360.18 197.704 360.26 197.649L360.95 197.249C361.008 197.226 361.072 197.226 361.13 197.249C361.19 197.249 361.23 197.329 361.25 197.489L362.04 203.179L362.73 198.909C362.748 198.803 362.778 198.699 362.82 198.599C362.86 198.473 362.945 198.366 363.06 198.299L363.83 197.849C363.94 197.789 364.02 197.799 364.07 197.849C364.113 197.913 364.144 197.984 364.16 198.059L364.86 201.529L365.65 194.929C365.659 194.8 365.697 194.673 365.76 194.559C365.807 194.485 365.868 194.42 365.94 194.369L366.63 193.969C366.656 193.95 366.688 193.939 366.72 193.939C366.752 193.939 366.784 193.95 366.81 193.969C366.838 194.002 366.86 194.04 366.874 194.081C366.888 194.123 366.893 194.166 366.89 194.209C366.894 194.249 366.894 194.29 366.89 194.329L365.69 204.159C365.67 204.303 365.633 204.444 365.58 204.579C365.534 204.686 365.458 204.777 365.36 204.839L364.59 205.279C364.5 205.329 364.43 205.329 364.38 205.279C364.329 205.188 364.289 205.09 364.26 204.989L363.43 201.129Z" fill="#FAFAFA"/>
<path d="M368.11 196.889C368.132 196.335 368.199 195.783 368.31 195.24C368.424 194.708 368.599 194.191 368.83 193.699C369.05 193.221 369.333 192.774 369.67 192.369C370.012 191.968 370.421 191.63 370.88 191.369C371.232 191.13 371.645 190.995 372.07 190.979C372.388 190.983 372.692 191.108 372.92 191.329C373.162 191.602 373.337 191.927 373.43 192.279C373.559 192.739 373.63 193.213 373.64 193.689C373.64 193.869 373.64 194.069 373.64 194.289C373.64 194.509 373.64 194.739 373.64 194.979C373.64 195.219 373.64 195.449 373.64 195.669C373.64 195.889 373.64 196.099 373.64 196.289C373.618 196.841 373.551 197.389 373.44 197.929C373.324 198.459 373.153 198.975 372.93 199.469C372.703 199.946 372.417 200.393 372.08 200.799C371.738 201.197 371.333 201.535 370.88 201.799C370.519 202.037 370.101 202.172 369.67 202.189C369.514 202.193 369.359 202.164 369.215 202.106C369.071 202.047 368.94 201.96 368.83 201.85C368.569 201.569 368.389 201.224 368.31 200.85C368.191 200.388 368.124 199.915 368.11 199.439C368.11 199.259 368.11 199.059 368.11 198.839C368.11 198.619 368.11 198.389 368.11 198.149C368.11 197.909 368.11 197.69 368.11 197.46C368.11 197.23 368.1 197.069 368.11 196.889ZM372.37 194.499C372.392 194.255 372.365 194.008 372.289 193.774C372.213 193.541 372.091 193.325 371.93 193.139C371.67 192.909 371.31 192.919 370.88 193.139C370.413 193.414 370.043 193.826 369.82 194.32C369.536 194.902 369.386 195.541 369.38 196.189C369.38 196.559 369.38 196.969 369.38 197.419C369.38 197.869 369.38 198.27 369.38 198.63C369.358 198.874 369.385 199.121 369.461 199.355C369.536 199.588 369.659 199.804 369.82 199.99C370.08 200.21 370.44 200.189 370.88 199.939C371.339 199.663 371.705 199.256 371.93 198.77C372.214 198.19 372.364 197.555 372.37 196.91C372.37 196.53 372.37 196.119 372.37 195.669C372.37 195.219 372.38 194.859 372.37 194.499Z" fill="#FAFAFA"/>
<path d="M378 187.38C378.79 186.93 379.38 186.86 379.79 187.19C380.033 187.458 380.214 187.776 380.319 188.122C380.425 188.467 380.452 188.832 380.4 189.19C380.408 189.869 380.303 190.545 380.09 191.19C379.887 191.791 379.571 192.347 379.16 192.83L380.46 195.66C380.464 195.707 380.464 195.753 380.46 195.8C380.46 195.89 380.44 195.979 380.4 196.06C380.372 196.133 380.324 196.195 380.26 196.24L379.46 196.7C379.33 196.77 379.24 196.78 379.18 196.7C379.127 196.648 379.083 196.587 379.05 196.52L377.82 193.85L376.57 194.57V197.95C376.571 198.061 376.547 198.17 376.5 198.27C376.459 198.357 376.397 198.432 376.32 198.49L375.56 198.93C375.535 198.951 375.503 198.963 375.47 198.963C375.437 198.963 375.405 198.951 375.38 198.93C375.351 198.899 375.329 198.863 375.316 198.823C375.302 198.784 375.297 198.742 375.3 198.7V189.35C375.303 189.239 375.33 189.13 375.38 189.03C375.415 188.939 375.478 188.862 375.56 188.81L378 187.38ZM376.59 192.76L378 192C378.345 191.808 378.639 191.537 378.86 191.21C379.092 190.825 379.203 190.379 379.18 189.93C379.18 189.39 379.07 189.09 378.86 189.03C378.556 188.989 378.247 189.068 378 189.25L376.64 190.03L376.59 192.76Z" fill="#FAFAFA"/>
<path d="M384.7 183.529C385.063 183.292 385.478 183.148 385.91 183.109C386.223 183.098 386.528 183.209 386.76 183.419C387.025 183.698 387.208 184.044 387.29 184.419C387.425 184.915 387.498 185.426 387.51 185.939C387.51 186.639 387.51 187.359 387.51 188.089C387.49 188.685 387.416 189.277 387.29 189.859C387.176 190.4 387.001 190.927 386.77 191.429C386.547 191.891 386.264 192.321 385.93 192.709C385.596 193.107 385.197 193.445 384.75 193.709L382.38 194.999C382.355 195.02 382.323 195.032 382.29 195.032C382.257 195.032 382.225 195.02 382.2 194.999C382.171 194.969 382.149 194.933 382.135 194.893C382.121 194.853 382.116 194.811 382.12 194.769V185.419C382.123 185.308 382.15 185.199 382.2 185.099C382.235 185.009 382.298 184.932 382.38 184.879L384.7 183.529ZM386.24 186.639C386.236 186.368 386.195 186.099 386.12 185.839C386.074 185.642 385.973 185.462 385.83 185.319C385.767 185.256 385.692 185.207 385.61 185.175C385.527 185.142 385.439 185.126 385.35 185.129C385.1 185.146 384.858 185.229 384.65 185.369L383.39 186.089V192.609L384.7 191.859C384.953 191.712 385.18 191.522 385.37 191.299C385.556 191.08 385.714 190.838 385.84 190.579C385.965 190.304 386.059 190.015 386.12 189.719C386.19 189.41 386.23 189.096 386.24 188.779C386.27 188.049 386.27 187.339 386.24 186.639Z" fill="#FAFAFA"/>
<path d="M247.38 38.3901C249.106 38.7742 250.769 39.4004 252.32 40.2501C253.805 41.0484 255.136 42.1049 256.25 43.3701C257.316 44.5872 258.107 46.0197 258.57 47.5701C259.042 49.2297 259.076 50.9832 258.67 52.6601C258.402 53.9896 257.875 55.2535 257.12 56.3801C256.431 57.3435 255.609 58.2052 254.68 58.9401C253.767 59.6486 252.794 60.2745 251.77 60.8101L248.89 62.3401C248.022 62.7926 247.199 63.3249 246.43 63.9301C245.734 64.4637 245.201 65.1805 244.89 66.0001C244.738 66.3746 244.485 66.6998 244.16 66.9401C244.006 67.0596 243.827 67.1424 243.637 67.1823C243.446 67.2222 243.249 67.218 243.06 67.1701L238.82 66.2301C238.616 66.1873 238.422 66.1042 238.251 65.9858C238.079 65.8673 237.933 65.7158 237.82 65.5401C237.7 65.3768 237.621 65.1876 237.588 64.9878C237.555 64.788 237.569 64.5833 237.63 64.3901C237.971 63.077 238.573 61.8459 239.4 60.7701C240.154 59.8185 241.028 58.9681 242 58.2401C242.947 57.547 243.95 56.9349 245 56.4101C246 55.9001 247 55.4101 247.87 54.9201C248.679 54.4851 249.44 53.9656 250.14 53.3701C250.754 52.8561 251.18 52.1525 251.35 51.3701C251.509 50.6907 251.501 49.9829 251.327 49.3072C251.153 48.6315 250.818 48.008 250.35 47.4901C249.181 46.2134 247.618 45.365 245.91 45.0801C242.75 44.3801 240.083 45.4435 237.91 48.2701C237.7 48.5787 237.436 48.8464 237.13 49.0601C236.785 49.2312 236.386 49.26 236.02 49.1401L231.51 48.1401C231.188 48.078 230.904 47.891 230.72 47.6201C230.622 47.4754 230.555 47.3112 230.526 47.1386C230.497 46.9661 230.505 46.7892 230.55 46.6201C230.933 45.2306 231.647 43.9543 232.63 42.9001C233.739 41.6776 235.056 40.6618 236.52 39.9001C238.121 39.0625 239.846 38.4885 241.63 38.2001C243.541 37.8893 245.494 37.9538 247.38 38.3901ZM242.59 70.5701C242.987 70.6633 243.331 70.9079 243.55 71.2518C243.769 71.5956 243.844 72.0114 243.76 72.4101L242.68 77.3101C242.643 77.5153 242.564 77.7104 242.447 77.8827C242.33 78.0551 242.177 78.2007 242 78.3101C241.833 78.4255 241.643 78.5047 241.443 78.5426C241.244 78.5805 241.038 78.5762 240.84 78.5301L236 77.4201C235.794 77.3854 235.598 77.3067 235.426 77.1893C235.253 77.072 235.108 76.9188 235 76.7401C234.888 76.5712 234.812 76.3812 234.775 76.1818C234.739 75.9823 234.744 75.7776 234.79 75.5801L235.88 70.6801C235.973 70.2829 236.217 69.9376 236.561 69.7173C236.904 69.4971 237.32 69.4192 237.72 69.5001L242.59 70.5701Z" fill="#263238"/>
<path d="M252.72 85.2996C253.924 85.1065 255.149 85.0829 256.36 85.2296C257.516 85.3671 258.64 85.7055 259.68 86.2296C260.67 86.7435 261.542 87.4588 262.24 88.3296C262.867 89.1819 263.309 90.1562 263.536 91.1897C263.763 92.2232 263.772 93.2928 263.56 94.3296C263.369 95.1268 263.063 95.8916 262.65 96.5996C262.252 97.2883 261.79 97.9379 261.27 98.5396C260.76 99.1396 260.27 99.7096 259.82 100.26C259.38 100.772 258.988 101.324 258.65 101.91C258.333 102.423 258.173 103.017 258.19 103.62C258.181 103.901 258.102 104.176 257.96 104.42C257.888 104.532 257.792 104.627 257.68 104.7C257.568 104.772 257.442 104.82 257.31 104.84L254.31 105.32C254.17 105.345 254.026 105.342 253.887 105.311C253.748 105.28 253.616 105.222 253.5 105.14C253.382 105.065 253.283 104.964 253.212 104.844C253.14 104.724 253.099 104.589 253.09 104.45C252.964 103.519 253.032 102.573 253.29 101.67C253.525 100.87 253.861 100.104 254.29 99.3896C254.71 98.704 255.192 98.058 255.73 97.4596C256.26 96.8596 256.73 96.2996 257.19 95.7596C257.601 95.2774 257.956 94.7508 258.25 94.1896C258.51 93.7066 258.605 93.1517 258.52 92.6096C258.445 92.1326 258.255 91.6807 257.968 91.2925C257.681 90.9042 257.304 90.5911 256.87 90.3796C255.795 89.8603 254.578 89.7126 253.41 89.9596C252.352 90.1143 251.369 90.5923 250.593 91.3281C249.818 92.0639 249.29 93.0216 249.08 94.0696C249.021 94.3217 248.92 94.5619 248.78 94.7796C248.602 94.9695 248.36 95.0869 248.1 95.1096L244.94 95.6196C244.718 95.6621 244.488 95.6154 244.3 95.4896C244.204 95.4235 244.123 95.3375 244.062 95.2375C244.002 95.1374 243.964 95.0257 243.95 94.9096C243.856 93.9173 244.011 92.9172 244.4 91.9996C244.795 90.9319 245.378 89.9431 246.12 89.0796C246.933 88.1341 247.892 87.324 248.96 86.6796C250.112 85.9808 251.389 85.5122 252.72 85.2996ZM257.88 107.15C258.018 107.128 258.158 107.133 258.294 107.166C258.429 107.199 258.557 107.258 258.67 107.34C258.788 107.417 258.888 107.519 258.964 107.638C259.04 107.756 259.089 107.89 259.11 108.03L259.67 111.46C259.713 111.738 259.645 112.022 259.481 112.25C259.316 112.479 259.068 112.633 258.79 112.68L255.44 113.23C255.162 113.273 254.878 113.204 254.65 113.04C254.534 112.961 254.436 112.859 254.362 112.74C254.288 112.621 254.239 112.488 254.22 112.35L253.66 108.92C253.635 108.782 253.638 108.641 253.671 108.504C253.704 108.368 253.765 108.241 253.85 108.13C253.928 108.014 254.03 107.915 254.149 107.841C254.268 107.767 254.401 107.719 254.54 107.7L257.88 107.15Z" fill="#263238"/>
<g opacity="0.2">
<path d="M252.72 85.2996C253.924 85.1065 255.149 85.0829 256.36 85.2296C257.516 85.3671 258.64 85.7055 259.68 86.2296C260.67 86.7435 261.542 87.4588 262.24 88.3296C262.867 89.1819 263.309 90.1562 263.536 91.1897C263.763 92.2232 263.772 93.2928 263.56 94.3296C263.369 95.1268 263.063 95.8916 262.65 96.5996C262.252 97.2883 261.79 97.9379 261.27 98.5396C260.76 99.1396 260.27 99.7096 259.82 100.26C259.38 100.772 258.988 101.324 258.65 101.91C258.333 102.423 258.173 103.017 258.19 103.62C258.181 103.901 258.102 104.176 257.96 104.42C257.888 104.532 257.792 104.627 257.68 104.7C257.568 104.772 257.442 104.82 257.31 104.84L254.31 105.32C254.17 105.345 254.026 105.342 253.887 105.311C253.748 105.28 253.616 105.222 253.5 105.14C253.382 105.065 253.283 104.964 253.212 104.844C253.14 104.724 253.099 104.589 253.09 104.45C252.964 103.519 253.032 102.573 253.29 101.67C253.525 100.87 253.861 100.104 254.29 99.3896C254.71 98.704 255.192 98.058 255.73 97.4596C256.26 96.8596 256.73 96.2996 257.19 95.7596C257.601 95.2774 257.956 94.7508 258.25 94.1896C258.51 93.7066 258.605 93.1517 258.52 92.6096C258.445 92.1326 258.255 91.6807 257.968 91.2925C257.681 90.9042 257.304 90.5911 256.87 90.3796C255.795 89.8603 254.578 89.7126 253.41 89.9596C252.352 90.1143 251.369 90.5923 250.593 91.3281C249.818 92.0639 249.29 93.0216 249.08 94.0696C249.021 94.3217 248.92 94.5619 248.78 94.7796C248.602 94.9695 248.36 95.0869 248.1 95.1096L244.94 95.6196C244.718 95.6621 244.488 95.6154 244.3 95.4896C244.204 95.4235 244.123 95.3375 244.062 95.2375C244.002 95.1374 243.964 95.0257 243.95 94.9096C243.856 93.9173 244.011 92.9172 244.4 91.9996C244.795 90.9319 245.378 89.9431 246.12 89.0796C246.933 88.1341 247.892 87.324 248.96 86.6796C250.112 85.9808 251.389 85.5122 252.72 85.2996ZM257.88 107.15C258.018 107.128 258.158 107.133 258.294 107.166C258.429 107.199 258.557 107.258 258.67 107.34C258.788 107.417 258.888 107.519 258.964 107.638C259.04 107.756 259.089 107.89 259.11 108.03L259.67 111.46C259.713 111.738 259.645 112.022 259.481 112.25C259.316 112.479 259.068 112.633 258.79 112.68L255.44 113.23C255.162 113.273 254.878 113.204 254.65 113.04C254.534 112.961 254.436 112.859 254.362 112.74C254.288 112.621 254.239 112.488 254.22 112.35L253.66 108.92C253.635 108.782 253.638 108.641 253.671 108.504C253.704 108.368 253.765 108.241 253.85 108.13C253.928 108.014 254.03 107.915 254.149 107.841C254.268 107.767 254.401 107.719 254.54 107.7L257.88 107.15Z" fill="black"/>
</g>
<path d="M281 90.6899C281.136 90.7846 281.252 90.9062 281.34 91.0472C281.427 91.1882 281.485 91.3457 281.51 91.5099C281.542 91.6725 281.54 91.8401 281.503 92.0018C281.467 92.1636 281.398 92.3162 281.3 92.4498L278.92 95.7999C278.825 95.9362 278.704 96.0517 278.563 96.1394C278.422 96.2271 278.264 96.2851 278.1 96.3098C277.937 96.3417 277.77 96.3394 277.608 96.3033C277.446 96.2672 277.294 96.1979 277.16 96.0998L273.88 93.7698C273.743 93.6763 273.628 93.5549 273.542 93.4135C273.456 93.2722 273.401 93.1141 273.38 92.9498C273.348 92.7872 273.35 92.6196 273.387 92.4579C273.423 92.2961 273.492 92.1435 273.59 92.0099L276 88.6599C276.195 88.3883 276.489 88.2046 276.818 88.1484C277.148 88.0922 277.486 88.1682 277.76 88.3599L281 90.6899ZM294.84 67.9999C296.036 68.838 297.101 69.849 298 70.9999C298.877 72.0703 299.554 73.2897 300 74.5998C300.415 75.8553 300.555 77.1855 300.41 78.4999C300.241 79.9015 299.71 81.235 298.87 82.3699C298.246 83.2874 297.443 84.0697 296.51 84.6698C295.689 85.1848 294.796 85.5757 293.86 85.8299C292.949 86.0681 292.019 86.2286 291.08 86.3098L288.42 86.5499C287.622 86.6136 286.832 86.7508 286.06 86.9599C285.348 87.1216 284.696 87.4823 284.18 87.9999C283.947 88.2364 283.653 88.4027 283.33 88.4799C283.176 88.5239 283.015 88.5305 282.858 88.4992C282.702 88.4679 282.555 88.3995 282.43 88.2999L279.53 86.2398C279.253 86.0419 279.063 85.7445 279 85.4099C278.963 85.2477 278.964 85.079 279.004 84.9174C279.044 84.7558 279.121 84.6059 279.23 84.4799C279.907 83.6008 280.754 82.8664 281.72 82.3199C282.59 81.845 283.517 81.4853 284.48 81.2499C285.409 81.0245 286.356 80.8806 287.31 80.8199C288.25 80.7599 289.13 80.6899 289.95 80.6099C290.7 80.5436 291.441 80.396 292.16 80.1698C292.788 79.9605 293.33 79.5492 293.7 78.9999C294.034 78.536 294.252 77.9983 294.333 77.4325C294.415 76.8666 294.359 76.2894 294.17 75.7499C293.697 74.417 292.792 73.2803 291.6 72.5198C289.44 70.9798 287.083 70.9299 284.53 72.3699C284.273 72.5334 283.988 72.6486 283.69 72.7099C283.535 72.7207 283.379 72.7006 283.231 72.6508C283.083 72.6011 282.947 72.5226 282.83 72.4198L279.75 70.2299C279.638 70.1558 279.543 70.0601 279.469 69.9485C279.395 69.8368 279.344 69.7115 279.32 69.5799C279.296 69.4438 279.301 69.3042 279.333 69.1699C279.366 69.0357 279.426 68.9097 279.51 68.7999C280.237 67.8688 281.181 67.1305 282.26 66.6499C283.486 66.0946 284.799 65.7562 286.14 65.6499C287.616 65.5265 289.102 65.6447 290.54 65.9999C292.092 66.3738 293.554 67.0538 294.84 67.9999Z" fill="#263238"/>
<g opacity="0.6">
<path d="M281 90.6899C281.136 90.7846 281.252 90.9062 281.34 91.0472C281.427 91.1882 281.485 91.3457 281.51 91.5099C281.542 91.6725 281.54 91.8401 281.503 92.0018C281.467 92.1636 281.398 92.3162 281.3 92.4498L278.92 95.7999C278.825 95.9362 278.704 96.0517 278.563 96.1394C278.422 96.2271 278.264 96.2851 278.1 96.3098C277.937 96.3417 277.77 96.3394 277.608 96.3033C277.446 96.2672 277.294 96.1979 277.16 96.0998L273.88 93.7698C273.743 93.6763 273.628 93.5549 273.542 93.4135C273.456 93.2722 273.401 93.1141 273.38 92.9498C273.348 92.7872 273.35 92.6196 273.387 92.4579C273.423 92.2961 273.492 92.1435 273.59 92.0099L276 88.6599C276.195 88.3883 276.489 88.2046 276.818 88.1484C277.148 88.0922 277.486 88.1682 277.76 88.3599L281 90.6899ZM294.84 67.9999C296.036 68.838 297.101 69.849 298 70.9999C298.877 72.0703 299.554 73.2897 300 74.5998C300.415 75.8553 300.555 77.1855 300.41 78.4999C300.241 79.9015 299.71 81.235 298.87 82.3699C298.246 83.2874 297.443 84.0697 296.51 84.6698C295.689 85.1848 294.796 85.5757 293.86 85.8299C292.949 86.0681 292.019 86.2286 291.08 86.3098L288.42 86.5499C287.622 86.6136 286.832 86.7508 286.06 86.9599C285.348 87.1216 284.696 87.4823 284.18 87.9999C283.947 88.2364 283.653 88.4027 283.33 88.4799C283.176 88.5239 283.015 88.5305 282.858 88.4992C282.702 88.4679 282.555 88.3995 282.43 88.2999L279.53 86.2398C279.253 86.0419 279.063 85.7445 279 85.4099C278.963 85.2477 278.964 85.079 279.004 84.9174C279.044 84.7558 279.121 84.6059 279.23 84.4799C279.907 83.6008 280.754 82.8664 281.72 82.3199C282.59 81.845 283.517 81.4853 284.48 81.2499C285.409 81.0245 286.356 80.8806 287.31 80.8199C288.25 80.7599 289.13 80.6899 289.95 80.6099C290.7 80.5436 291.441 80.396 292.16 80.1698C292.788 79.9605 293.33 79.5492 293.7 78.9999C294.034 78.536 294.252 77.9983 294.333 77.4325C294.415 76.8666 294.359 76.2894 294.17 75.7499C293.697 74.417 292.792 73.2803 291.6 72.5198C289.44 70.9798 287.083 70.9299 284.53 72.3699C284.273 72.5334 283.988 72.6486 283.69 72.7099C283.535 72.7207 283.379 72.7006 283.231 72.6508C283.083 72.6011 282.947 72.5226 282.83 72.4198L279.75 70.2299C279.638 70.1558 279.543 70.0601 279.469 69.9485C279.395 69.8368 279.344 69.7115 279.32 69.5799C279.296 69.4438 279.301 69.3042 279.333 69.1699C279.366 69.0357 279.426 68.9097 279.51 68.7999C280.237 67.8688 281.181 67.1305 282.26 66.6499C283.486 66.0946 284.799 65.7562 286.14 65.6499C287.616 65.5265 289.102 65.6447 290.54 65.9999C292.092 66.3738 293.554 67.0538 294.84 67.9999Z" fill="white"/>
</g>
<path d="M206.53 179.21H171V93.1304C171 85.654 173.97 78.4837 179.257 73.1971C184.543 67.9104 191.714 64.9404 199.19 64.9404H202.47C209.946 64.9404 217.117 67.9104 222.403 73.1971C227.69 78.4837 230.66 85.654 230.66 93.1304V155.13C230.647 161.521 228.099 167.646 223.575 172.161C219.051 176.675 212.921 179.21 206.53 179.21Z" fill="#263238"/>
<path d="M167.54 386.44C166.912 390.007 166.577 393.619 166.54 397.24C166.41 403.8 165.21 406.13 165.05 411.51C164.86 417.66 165.93 419.96 168.42 423.42C170.91 426.88 177.42 430.01 180.24 424.17C183.06 418.33 182.65 414.5 181.76 408.47C180.85 402.23 180.76 398.78 180.2 394.03C179.74 389.84 179.2 386.65 179.2 386.65L167.54 386.44Z" fill="#263238"/>
<path d="M186.16 342.87L164.56 342.48C164.88 356.9 167.17 372.91 167.56 386.48C167.64 389.03 167.5 406.27 168.46 411.48C169.91 419.36 179.25 418.29 179.75 413.58C180.25 408.87 179.15 388.74 179.18 386.66C179.09 377.98 183.18 363.33 185.29 347.75C185.38 347 186.06 343.62 186.16 342.87Z" fill="#FFA8A7"/>
<path d="M213.91 375.221C213.91 375.221 213.06 374.761 212.91 375.671C212.7 376.751 212.38 378.981 211.91 380.761C211.29 383.231 210.77 387.301 211.14 389.321C211.51 391.341 216.21 393.921 219.26 394.861C223.019 396.021 226.447 398.061 229.26 400.811C232.26 403.651 238.79 406.331 243.26 406.301C248.51 406.301 252.17 404.551 253.9 401.741C255.63 398.931 252.32 398.591 246.32 394.741L241.67 391.741C232.16 385.531 228.67 382.211 226 376.001L213.91 375.221Z" fill="#263238"/>
<path d="M226.08 371.37C225.92 366.91 229 329 229 329L208.49 338.35C212.88 364.57 213.82 370.76 213.89 375.05C213.8 375.409 213.763 375.78 213.78 376.15C213.78 381.24 219.55 383.99 224.03 387.39C227.838 390.373 231.897 393.023 236.16 395.31C239.42 396.94 246.04 397.09 246.86 395C241.4 390.83 233.46 384.59 229.12 379.83C227 377.59 226.24 375.84 226.08 371.37Z" fill="#FFA8A7"/>
<path d="M173.41 202.16C165.53 219.45 165.53 232.83 166.84 254.9C168 275.15 169.93 293 169.93 293C169.63 296.59 164.64 303.6 163.99 319.48C163.39 334.32 164.99 353.19 164.99 353.19C164.99 353.19 176.2 359.4 184.49 353.13C184.49 353.13 192.49 314.94 194.83 296.36C196.83 280.15 200.43 259.44 200.43 259.44L208 296.25C206.366 301.473 205.182 306.826 204.46 312.25C203.4 323.18 209.52 344.64 209.52 344.64C209.52 344.64 221.1 348.09 228.17 341.82C228.17 341.82 230.81 306.93 231.8 293.77C233.12 276.14 230.34 228.42 228.17 203.15L173.41 202.16Z" fill="#455A64"/>
<path d="M200.45 259.41L203.56 231.67C203.56 231.67 217.5 229.81 223.82 223.87C222.011 226.7 219.601 229.097 216.762 230.891C213.922 232.685 210.723 233.832 207.39 234.25L202.89 260.06L208 296.25L200.45 259.41Z" fill="#263238"/>
<path d="M256.9 195.34C257.476 190.278 257.73 185.184 257.66 180.09C257.35 175.69 256.56 174.97 250.41 167.18C242.11 156.65 235.02 147.18 227.52 137.77C222.16 131.05 216.52 130.02 211.04 130.32C207.2 130.53 214.7 149 218.47 159.93L240 183.11C240.667 184.025 240.973 185.154 240.86 186.28L239.56 206L246.01 214.64C246.01 214.64 255.78 206.22 256.9 195.34Z" fill="#FFA8A7"/>
<path d="M190.28 130.92C186.11 131.21 178.53 131.92 178.53 131.92C174.16 134.36 173.05 136.37 172.24 142.17C171.89 144.65 173.91 151.24 175.64 160.61L178.92 177.98L178.56 186.6C176.86 191.86 173.01 198.39 169.61 208.02C186.31 217.34 200.31 217.69 213.01 216.02C222.69 214.77 227.82 212.43 229.53 210.11C229.17 200.6 228.53 194.72 228.33 184.78C228.26 180.61 228.51 176.39 228.68 171.59C235.17 166.25 235.25 157.37 231.68 151.59C223.45 138.26 215.44 129.87 210.14 130.3L190.28 130.92Z" fill="#BA68C8"/>
<path opacity="0.6" d="M190.28 130.92C186.11 131.21 178.53 131.92 178.53 131.92C174.16 134.36 173.05 136.37 172.24 142.17C171.89 144.65 173.91 151.24 175.64 160.61L178.92 177.98L178.56 186.6C176.86 191.86 173.01 198.39 169.61 208.02C186.31 217.34 200.31 217.69 213.01 216.02C222.69 214.77 227.82 212.43 229.53 210.11C229.17 200.6 228.53 194.72 228.33 184.78C228.26 180.61 228.51 176.39 228.68 171.59C235.17 166.25 235.25 157.37 231.68 151.59C223.45 138.26 215.44 129.87 210.14 130.3L190.28 130.92Z" fill="white"/>
<path opacity="0.1" d="M215.75 171.72C215.75 171.72 208.13 177.64 199.42 174.55C196.974 173.78 194.769 172.391 193.017 170.518C191.265 168.645 190.026 166.352 189.42 163.86C189.42 163.86 188.5 173.81 199.47 177.2C210.1 180.47 215.75 171.72 215.75 171.72Z" fill="black"/>
<path d="M226.09 103.61C225.76 118.05 221.09 121.61 218.73 122.61C216.37 123.61 211.85 123.01 207.45 122.28V131C207.45 131 212.53 136.32 212.15 140.29C211.77 144.26 204.15 144.71 198.47 140.82C195.336 138.667 192.501 136.108 190.04 133.21C189.567 132.651 189.309 131.942 189.31 131.21V110.81C189.31 110.81 186.9 113.36 182.64 110.44C181.721 109.853 180.934 109.082 180.329 108.175C179.724 107.267 179.314 106.244 179.126 105.17C178.938 104.096 178.976 102.995 179.236 101.936C179.497 100.877 179.975 99.884 180.64 99.02C182.5 96.83 187.22 96.68 189.48 100.02C190.76 102.51 190.93 105.02 192.36 104.02C196.16 101.28 194.12 95.02 198.71 92.02C200.216 91.2338 201.781 90.5652 203.39 90.02C211.58 87.19 218.68 84.81 220.39 79.21C223.61 81.05 226.49 86.58 226.09 103.61Z" fill="#FFA8A7"/>
<path d="M209.94 116.51C210.989 116.51 211.84 115.659 211.84 114.61C211.84 113.561 210.989 112.71 209.94 112.71C208.891 112.71 208.04 113.561 208.04 114.61C208.04 115.659 208.891 116.51 209.94 116.51Z" fill="#B16668"/>
<path d="M208.68 101.42C208.68 101.812 208.564 102.194 208.349 102.521C208.133 102.847 207.826 103.103 207.467 103.257C207.107 103.411 206.71 103.456 206.325 103.386C205.94 103.317 205.584 103.136 205.301 102.866C205.017 102.596 204.82 102.25 204.731 101.868C204.643 101.487 204.669 101.089 204.805 100.722C204.941 100.355 205.182 100.036 205.497 99.8051C205.813 99.5737 206.189 99.44 206.58 99.4205C206.851 99.4069 207.122 99.4486 207.376 99.543C207.63 99.6374 207.863 99.7826 208.059 99.9697C208.256 100.157 208.412 100.382 208.519 100.631C208.626 100.881 208.68 101.149 208.68 101.42Z" fill="#263238"/>
<path d="M223.83 101.62C223.851 101.865 223.822 102.111 223.746 102.345C223.671 102.578 223.549 102.794 223.389 102.98C223.229 103.167 223.034 103.319 222.814 103.429C222.594 103.539 222.355 103.604 222.11 103.62C221.863 103.643 221.614 103.613 221.379 103.532C221.144 103.451 220.93 103.321 220.749 103.151C220.568 102.981 220.426 102.774 220.331 102.545C220.237 102.315 220.192 102.068 220.2 101.82C220.174 101.574 220.199 101.324 220.273 101.088C220.347 100.851 220.468 100.632 220.63 100.444C220.791 100.256 220.989 100.103 221.212 99.9948C221.435 99.8862 221.677 99.8241 221.925 99.8125C222.173 99.8009 222.42 99.84 222.652 99.9274C222.884 100.015 223.095 100.149 223.274 100.321C223.452 100.493 223.593 100.699 223.689 100.928C223.785 101.157 223.833 101.402 223.83 101.65V101.62Z" fill="#263238"/>
<path d="M206.11 106.561C204.385 106.561 202.731 105.876 201.51 104.657C200.29 103.439 199.603 101.785 199.6 100.061C199.6 95.6406 204.16 95.6406 206.11 95.6406C208.06 95.6406 212.61 95.6406 212.61 100.061C212.607 101.784 211.922 103.435 210.703 104.654C209.485 105.872 207.833 106.558 206.11 106.561ZM206.11 96.6606C202.11 96.6606 200.63 97.6606 200.63 100.061C200.63 101.519 201.21 102.918 202.241 103.95C203.272 104.981 204.671 105.561 206.13 105.561C207.589 105.561 208.988 104.981 210.019 103.95C211.051 102.918 211.63 101.519 211.63 100.061C211.59 97.6106 210.05 96.6606 206.11 96.6606Z" fill="#455A64"/>
<path d="M222.62 106.561C220.895 106.561 219.241 105.876 218.02 104.657C216.8 103.439 216.113 101.785 216.11 100.061C216.11 95.6406 220.67 95.6406 222.62 95.6406C224.57 95.6406 229.12 95.6406 229.12 100.061C229.117 101.784 228.432 103.435 227.213 104.654C225.995 105.872 224.343 106.558 222.62 106.561ZM222.62 96.6606C218.68 96.6606 217.14 97.6606 217.14 100.061C217.14 101.519 217.719 102.918 218.751 103.95C219.782 104.981 221.181 105.561 222.64 105.561C224.099 105.561 225.498 104.981 226.529 103.95C227.561 102.918 228.14 101.519 228.14 100.061C228.1 97.6106 226.56 96.6606 222.62 96.6606Z" fill="#455A64"/>
<path d="M213.62 97.96L213.94 110.11L220.33 108.13L213.62 97.96Z" fill="#F28F8F"/>
<path d="M207.44 122.311C202.8 121.701 193.25 118.961 191.76 115.181C192.36 117.091 193.529 118.773 195.11 120.001C197.96 122.451 207.44 125.201 207.44 125.201V122.311Z" fill="#F28F8F"/>
<path d="M207.67 92.06L203.43 94.65C203.096 94.0679 202.999 93.3795 203.159 92.7277C203.319 92.0759 203.724 91.5109 204.29 91.15C204.57 90.9802 204.881 90.869 205.205 90.8229C205.529 90.7769 205.859 90.797 206.175 90.882C206.491 90.9671 206.786 91.1153 207.043 91.3178C207.3 91.5203 207.513 91.7727 207.67 92.06Z" fill="#263238"/>
<path d="M224.92 94.9403L220.2 93.2903C220.291 92.9775 220.446 92.6866 220.654 92.4357C220.862 92.1847 221.119 91.9789 221.409 91.8309C221.699 91.683 222.017 91.5959 222.342 91.5752C222.667 91.5544 222.993 91.6004 223.3 91.7103C223.933 91.9378 224.454 92.4 224.756 93.0013C225.058 93.6026 225.116 94.2968 224.92 94.9403Z" fill="#263238"/>
<path d="M212.1 100.58C212.032 100.58 211.965 100.567 211.903 100.541C211.84 100.514 211.783 100.476 211.736 100.428C211.688 100.379 211.651 100.322 211.626 100.259C211.601 100.196 211.589 100.128 211.59 100.06C211.59 99.2304 213.23 98.6904 214.71 98.6904C216.19 98.6904 217.14 99.2304 217.14 100.06C217.109 100.169 217.043 100.265 216.953 100.333C216.863 100.401 216.753 100.438 216.64 100.438C216.527 100.438 216.417 100.401 216.327 100.333C216.237 100.265 216.171 100.169 216.14 100.06C216.14 99.9604 215.63 99.7104 214.74 99.7104C214.024 99.6952 213.311 99.8174 212.64 100.07C212.64 100.14 212.626 100.209 212.599 100.273C212.571 100.337 212.531 100.394 212.48 100.442C212.43 100.49 212.37 100.527 212.304 100.551C212.239 100.574 212.17 100.585 212.1 100.58Z" fill="#455A64"/>
<path d="M200.13 100.14H200.07L188.64 99.1399C188.106 98.6106 187.47 98.1955 186.77 97.9199L200.19 99.1599C200.325 99.1774 200.447 99.2469 200.531 99.3534C200.615 99.4598 200.654 99.595 200.64 99.7299C200.617 99.8472 200.553 99.9526 200.459 100.028C200.366 100.102 200.25 100.142 200.13 100.14Z" fill="#455A64"/>
<path d="M153.2 112.06C156.94 107.06 159.49 103.29 162.9 99.0603C164.84 96.6303 166.08 94.8903 167.9 92.4003C169.18 90.6803 169.9 89.2303 171.36 88.7003C172.937 88.054 174.359 87.079 175.53 85.8403C176.25 85.0439 176.918 84.2022 177.53 83.3203C179.673 80.4354 182.219 77.8726 185.09 75.7103C188.09 73.4503 191.44 71.7103 194.53 69.5603C196.37 68.2703 198.34 66.1303 196.1 64.1303C195.413 63.5517 194.591 63.1562 193.71 62.9803C188.26 61.8003 183.52 63.6703 178.19 65.0303C175.875 65.6082 173.611 66.3741 171.42 67.3203C170.343 67.7464 169.332 68.3257 168.42 69.0403C167.145 70.3261 166.1 71.8211 165.33 73.4603C163 77.6203 158 81.3403 154.5 84.6303C150.41 88.4803 146.75 92.0103 142.08 96.2503C137.88 100.08 133.77 103.6 129.92 107.78C126.73 111.23 127.92 113.93 128.34 114.87C130.94 120.21 133.85 122.13 137.34 125.44C143.34 131.17 164.09 147.66 170.96 153.11C172.436 154.27 173.595 155.783 174.33 157.51L175.65 160.56C183.49 162 188.72 150.23 182.23 136.06C181.155 133.769 179.513 131.79 177.46 130.31C169.26 124.34 153.2 112.06 153.2 112.06Z" fill="#FFA8A7"/>
<path d="M153.2 112.061C150.705 115.13 147.379 117.418 143.62 118.651C143.62 118.651 148.62 119.931 155.47 113.781L153.2 112.061Z" fill="#F28F8F"/>
<path d="M254.86 184.91L253.58 183.81C253.389 183.684 253.17 183.605 252.943 183.579C252.715 183.553 252.485 183.581 252.27 183.66L238.38 187.44C237.68 187.673 237.039 188.055 236.501 188.559C235.962 189.063 235.539 189.677 235.26 190.36L225.26 219.19C225.14 219.425 225.092 219.691 225.124 219.953C225.156 220.215 225.266 220.461 225.44 220.66L226.76 221.8C226.952 221.933 227.174 222.016 227.405 222.044C227.637 222.072 227.872 222.043 228.09 221.96L242 218.18C242.7 217.947 243.341 217.565 243.879 217.061C244.418 216.557 244.841 215.943 245.12 215.26C247.12 209.59 253.12 192.1 255.12 186.43C255.36 185.72 255.24 185.18 254.86 184.91Z" fill="#455A64"/>
<path d="M226.57 220.3L236.57 191.47C236.848 190.788 237.271 190.174 237.81 189.672C238.348 189.169 238.99 188.79 239.69 188.56L253.57 184.78C254.86 184.43 255.57 185.17 255.11 186.43C253.11 192.1 247.11 209.59 245.11 215.26C244.831 215.943 244.408 216.557 243.869 217.061C243.331 217.565 242.69 217.947 241.99 218.18L228.11 222C226.83 222.3 226.14 221.56 226.57 220.3Z" fill="#888888"/>
<path d="M238.18 189.36C237.458 189.907 236.898 190.64 236.56 191.48L226.56 220.3C226.445 220.529 226.398 220.785 226.423 221.04C226.447 221.295 226.544 221.537 226.7 221.74L225.46 220.68C225.282 220.483 225.169 220.237 225.135 219.975C225.101 219.712 225.148 219.445 225.27 219.21L235.27 190.38C235.586 189.596 236.099 188.907 236.76 188.38L238.18 189.36Z" fill="#37474F"/>
<path d="M251.05 198.05C250.05 200.98 246.58 202.94 240.84 204.3C235.1 205.66 231.93 211.75 232.84 213.6C233.75 215.45 243.03 217.18 246.74 216.65C250.45 216.12 254.17 210.76 255.3 209.1C256.43 207.44 257.73 195.86 256.54 194.27C255.35 192.68 252.84 192.93 252.84 192.93L251.05 198.05Z" fill="#F28F8F"/>
</svg>
